<svg width="36" height="33" viewBox="0 0 36 33" fill="none" xmlns="http://www.w3.org/2000/svg">
<path id="attention" d="M36 30.2912C36 31.1318 35.7037 31.7735 35.111 32.2162C34.5183 32.6588 33.7903 32.8798 32.927 32.8792H3.073C2.21033 32.8792 1.48267 32.6528 0.89 32.2002C0.297333 31.7475 0.000666539 31.1112 0 30.2912C0 29.6445 0.194 28.9868 0.582 28.3182L15.493 2.31318C16.2043 1.12718 17.0453 0.53418 18.016 0.53418C18.9867 0.53418 19.806 1.12718 20.474 2.31318L35.417 28.3512C35.805 29.0412 35.999 29.6882 35.999 30.2922L36 30.2912ZM20.248 13.7632V9.04118H15.752V13.7632C15.752 14.0652 15.7737 14.3508 15.817 14.6202C15.8603 14.8895 15.9197 15.1915 15.995 15.5262C16.0703 15.8608 16.1297 16.1465 16.173 16.3832L17.014 21.6232H18.922L19.795 16.3832C19.8383 16.1678 19.903 15.8875 19.989 15.5422C20.075 15.1968 20.1397 14.8895 20.183 14.6202C20.2263 14.3508 20.248 14.0652 20.248 13.7632ZM20.248 26.2812C20.248 25.6558 20.027 25.1275 19.585 24.6962C19.143 24.2648 18.6093 24.0492 17.984 24.0492C17.38 24.0492 16.857 24.2648 16.415 24.6962C15.973 25.1275 15.752 25.6558 15.752 26.2812C15.752 26.9065 15.973 27.4402 16.415 27.8822C16.857 28.3242 17.38 28.5452 17.984 28.5452C18.6093 28.5452 19.143 28.3242 19.585 27.8822C20.027 27.4402 20.248 26.9065 20.248 26.2812Z" fill="#DE3249"/>
</svg>
