<svg xmlns="http://www.w3.org/2000/svg" width="66" height="111" viewBox="0 0 66 111" fill="none">
  <path d="M39.9442 99.2886C39.9442 97.4046 39.2732 95.7917 37.9313 94.4498C36.5894 93.1079 34.9765 92.437 33.0926 92.437C31.2087 92.437 29.5958 93.1079 28.2539 94.4498C26.912 95.7917 26.241 97.4046 26.241 99.2886C26.241 101.172 26.912 102.785 28.2539 104.127C29.5958 105.469 31.2087 106.14 33.0926 106.14C34.9765 106.14 36.5894 105.469 37.9313 104.127C39.2732 102.785 39.9442 101.172 39.9442 99.2886ZM57.7582 85.5854V25.2916C57.7582 24.5486 57.4872 23.9061 56.9452 23.364C56.4032 22.822 55.7606 22.551 55.0176 22.551H11.1676C10.4246 22.551 9.78205 22.822 9.24001 23.364C8.69798 23.9061 8.42696 24.5486 8.42696 25.2916V85.5854C8.42696 86.3284 8.69798 86.971 9.24001 87.513C9.78205 88.055 10.4246 88.326 11.1676 88.326H55.0176C55.7606 88.326 56.4032 88.055 56.9452 87.513C57.4872 86.971 57.7582 86.3284 57.7582 85.5854ZM41.3145 12.9588C41.3145 12.0453 40.8577 11.5885 39.9442 11.5885H26.241C25.3275 11.5885 24.8707 12.0453 24.8707 12.9588C24.8707 13.8723 25.3275 14.3291 26.241 14.3291H39.9442C40.8577 14.3291 41.3145 13.8723 41.3145 12.9588ZM65.9801 11.5885V99.2885C65.9801 102.259 64.895 104.828 62.7249 106.996C60.5547 109.164 57.9856 110.249 55.0176 110.251H11.1676C8.19756 110.251 5.62847 109.166 3.46033 106.996C1.29219 104.826 0.207109 102.257 0.205078 99.2885V11.5885C0.205078 8.61846 1.29016 6.04937 3.46033 3.88123C5.6305 1.71309 8.19959 0.628007 11.1676 0.625977H55.0176C57.9876 0.625977 60.5567 1.71106 62.7249 3.88123C64.893 6.0514 65.9781 8.62049 65.9801 11.5885Z" fill="#191C2A"/>
</svg>