<svg width="222" height="87" viewBox="0 0 222 87" fill="none" xmlns="http://www.w3.org/2000/svg">
<g id="Layer 2">
<g id="Layer 1">
<path id="Path 3" d="M142.628 10.9014L142.519 11.6409L141.49 18.81L141.412 19.3594H113.684L112.434 28.0779H131.897C134.649 28.0779 136.482 28.6743 137.506 29.9008C138.847 31.4815 139.37 33.445 139.068 35.7366L137.636 45.7441C137.344 47.9289 136.277 49.8377 134.469 51.4184C132.662 52.9991 130.621 53.8089 128.42 53.8089H99.0564L99.1684 53.0642L100.28 45.2779L100.366 44.7207H128.003L129.175 36.5594H109.777C107.173 36.5594 105.314 35.9449 104.252 34.7366C102.853 33.1377 102.309 31.1872 102.627 28.9607L104.064 18.9532C104.768 14.3845 108.658 10.9856 113.28 10.9014H142.628Z" fill="white"/>
<path id="Path 4" d="M181.953 11.9586L165.377 32.432L176.052 52.8532L176.544 53.8063H166.614L166.432 53.4574L159.367 39.8276L148.271 53.5589L148.076 53.8063H138.006L138.86 52.7517L155.435 32.2757L144.761 11.8467L144.269 10.9014H154.133L154.315 11.2503L161.406 24.8801L172.468 11.141L172.664 10.9014H182.807L181.953 11.9586Z" fill="white"/>
<path id="Path 5" d="M221.8 10.9014L221.696 11.6409L220.654 18.8178L220.576 19.3673H192.861L191.608 28.0857H211.066C213.818 28.0857 215.66 28.6821 216.683 29.9086C218.024 31.4893 218.547 33.4528 218.245 35.7444L216.808 45.7519C216.516 47.9367 215.454 49.8455 213.639 51.4262C211.824 53.0069 209.798 53.8167 207.597 53.8167H178.234L178.338 53.072L179.458 45.2857L179.536 44.7285H207.181L208.347 36.5673H188.955C186.351 36.5673 184.483 35.9527 183.421 34.7444C182.022 33.1455 181.478 31.195 181.804 28.9685L183.233 18.961C183.935 14.3922 187.823 10.9909 192.444 10.9014H221.8Z" fill="white"/>
<path id="Path 6" d="M77.8592 0.263672L51.9537 32.5205L33.3084 17.0054L0.507324 57.5484L8.79353 64.444L34.699 32.1872L53.3443 47.705L86.1454 7.1593L77.8592 0.263672Z" fill="#EF4136"/>
<rect id="Rectangle 17" x="65.5137" y="70.5742" width="10.7783" height="24.2571" transform="rotate(-50.2299 65.5137 70.5742)" fill="#EF4136"/>
<rect id="Rectangle 18" x="3.36475" y="18.8511" width="10.7783" height="24.2571" transform="rotate(-50.2299 3.36475 18.8511)" fill="#EF4136"/>
</g>
</g>
</svg>
