<svg width="136" height="68" viewBox="0 0 136 68" fill="none" xmlns="http://www.w3.org/2000/svg">
<path id="vr" d="M87.8793 67.8536L74.3713 54.3456H60.8633L47.3553 67.8536H33.8472C26.3869 67.8536 20.3392 61.8059 20.3392 54.3456V13.8215C20.3392 6.36123 26.3869 0.313477 33.8472 0.313477H101.387C108.848 0.313477 114.895 6.36123 114.895 13.8215V54.3456C114.895 61.8059 108.848 67.8536 101.387 67.8536H87.8793ZM135.157 47.5916C135.157 51.3217 132.134 54.3456 128.403 54.3456C124.673 54.3456 121.649 51.3217 121.649 47.5916V20.5755C121.649 16.8454 124.673 13.8215 128.403 13.8215C132.134 13.8215 135.157 16.8454 135.157 20.5755V47.5916ZM13.5852 47.5916C13.5852 51.3217 10.5613 54.3456 6.83116 54.3456C3.10102 54.3456 0.0771484 51.3217 0.0771484 47.5916V20.5755C0.0771484 16.8454 3.10102 13.8215 6.83116 13.8215C10.5613 13.8215 13.5852 16.8454 13.5852 20.5755V47.5916Z" fill="#DE3249"/>
</svg>
