<svg width="136" height="68" viewBox="0 0 136 68" fill="none" xmlns="http://www.w3.org/2000/svg">
<path id="vr" d="M88.3696 67.8536L74.8615 54.3456H61.3535L47.8455 67.8536H34.3375C26.8772 67.8536 20.8294 61.8059 20.8294 54.3456V13.8215C20.8294 6.36123 26.8772 0.313477 34.3375 0.313477H101.878C109.338 0.313477 115.386 6.36123 115.386 13.8215V54.3456C115.386 61.8059 109.338 67.8536 101.878 67.8536H88.3696ZM135.648 47.5916C135.648 51.3217 132.624 54.3456 128.894 54.3456C125.164 54.3456 122.14 51.3217 122.14 47.5916V20.5755C122.14 16.8454 125.164 13.8215 128.894 13.8215C132.624 13.8215 135.648 16.8454 135.648 20.5755V47.5916ZM14.0754 47.5916C14.0754 51.3217 11.0515 54.3456 7.3214 54.3456C3.59126 54.3456 0.567383 51.3217 0.567383 47.5916V20.5755C0.567383 16.8454 3.59126 13.8215 7.3214 13.8215C11.0515 13.8215 14.0754 16.8454 14.0754 20.5755V47.5916Z" fill="#191C2A"/>
</svg>
