<svg width="261" height="237" viewBox="0 0 261 237" fill="none" xmlns="http://www.w3.org/2000/svg">
<path d="M252.838 61.3148H241.016V30.8466C241.016 27.4812 238.288 24.753 234.922 24.753H29.2809C25.9155 24.753 23.1873 22.0247 23.1873 18.6593C23.1873 15.2939 25.9155 12.5657 29.2809 12.5657H232.485C235.85 12.5657 238.578 9.83746 238.578 6.47204C238.578 3.10661 235.85 0.378396 232.485 0.378396H29.2809C19.3858 0.174389 11.1999 8.03284 11 17.9281L11 145.895C11.0161 152.58 13.6915 158.984 18.4358 163.694C23.1801 168.404 29.6035 171.033 36.2886 171H234.922C238.288 171 241.016 168.272 241.016 164.907V134.438H252.838C254.392 134.556 255.926 134.028 257.079 132.979C258.232 131.93 258.902 130.452 258.931 128.893L258.931 67.9569C258.973 64.481 256.304 61.572 252.838 61.3148ZM247.11 122.251H194.826C181.823 121.788 171.652 110.881 172.097 97.8767C171.651 84.8727 181.823 73.9652 194.826 73.5021L247.11 73.5021V122.251Z" fill="white"/>
<path d="M207.745 97.389C207.745 102.437 203.652 106.529 198.604 106.529C193.556 106.529 189.464 102.437 189.464 97.389C189.464 92.3409 193.556 88.2485 198.604 88.2485C203.652 88.2485 207.745 92.3409 207.745 97.389Z" fill="white"/>
<g opacity="0.42" filter="url(#filter0_b_1_4)">
<ellipse cx="130.5" cy="228" rx="130.5" ry="9" fill="#191C2A"/>
</g>
<defs>
<filter id="filter0_b_1_4" x="-10" y="209" width="281" height="38" filterUnits="userSpaceOnUse" color-interpolation-filters="sRGB">
<feFlood flood-opacity="0" result="BackgroundImageFix"/>
<feGaussianBlur in="BackgroundImageFix" stdDeviation="5"/>
<feComposite in2="SourceAlpha" operator="in" result="effect1_backgroundBlur_1_4"/>
<feBlend mode="normal" in="SourceGraphic" in2="effect1_backgroundBlur_1_4" result="shape"/>
</filter>
</defs>
</svg>
