<svg width="32" height="36" viewBox="0 0 32 36" fill="none" xmlns="http://www.w3.org/2000/svg">
<path id="copy" d="M23.2375 1.06586e-06V3.225H4.0375V25.65H0.8125V3.225C0.8125 2.325 1.12517 1.56233 1.7505 0.937001C2.37583 0.311667 3.13817 -0.00066588 4.0375 1.06586e-06H23.2375ZM28.0375 6.45C28.8875 6.45 29.6248 6.76267 30.2495 7.388C30.8742 8.01333 31.1868 8.75067 31.1875 9.6V32.025C31.1875 32.925 30.8748 33.6877 30.2495 34.313C29.6242 34.9383 28.8868 35.2507 28.0375 35.25H10.4125C9.5125 35.25 8.74983 34.9373 8.1245 34.312C7.49917 33.6867 7.18683 32.9243 7.1875 32.025V9.6C7.1875 8.75 7.50017 8.01267 8.1255 7.388C8.75083 6.76333 9.51317 6.45067 10.4125 6.45H28.0375ZM28.0375 32.025V9.6H10.4125V32.025H28.0375Z" fill="white"/>
</svg>
