<svg width="65" height="66" viewBox="0 0 65 66" fill="none" xmlns="http://www.w3.org/2000/svg">
<path id="Icon awesome-facebook-square" d="M57.7841 0.755859H6.93409C3.1045 0.755859 -9.79683e-07 3.86037 0 7.68997V58.5401C0 62.3697 3.1045 65.4742 6.93409 65.4742H26.7613V43.4714H17.6603V33.115H26.7613V25.2217C26.7613 16.2435 32.1063 11.2841 40.2928 11.2841C44.2135 11.2841 48.3133 11.9833 48.3133 11.9833V20.7954H43.796C39.3452 20.7954 37.9569 23.5575 37.9569 26.3904V33.115H47.8929L46.3038 43.4714H37.9569V65.4742H57.7841C61.6137 65.4742 64.7182 62.3697 64.7182 58.5401V7.68996C64.7182 3.86036 61.6137 0.755859 57.7841 0.755859Z" fill="white"/>
</svg>
