<svg width="66" height="66" viewBox="0 0 66 66" fill="#FFF" xmlns="http://www.w3.org/2000/svg">
<path id="Icon awesome-instagram" d="M33.0855 16.5176C23.8979 16.5176 16.4871 23.9284 16.4871 33.1161C16.4871 42.3038 23.8979 49.7146 33.0855 49.7146C42.2732 49.7146 49.684 42.3038 49.684 33.1161C49.684 23.9284 42.2732 16.5176 33.0855 16.5176ZM33.0855 43.9073C27.1482 43.9073 22.2944 39.0679 22.2944 33.1161C22.2944 27.1643 27.1338 22.3249 33.0855 22.3249C39.0373 22.3249 43.8767 27.1643 43.8767 33.1161C43.8767 39.0679 39.0229 43.9073 33.0855 43.9073ZM54.2345 15.8386C54.2345 17.9911 52.501 19.7101 50.363 19.7101C48.2105 19.7101 46.4915 17.9766 46.4915 15.8386C46.4915 13.7006 48.225 11.9671 50.363 11.9671C52.501 11.9671 54.2345 13.7006 54.2345 15.8386ZM65.2279 19.7679C64.9824 14.5818 63.7978 9.98796 59.9985 6.20309C56.2136 2.41822 51.6198 1.23365 46.4337 0.973619C41.0886 0.670252 25.068 0.670252 19.723 0.973619C14.5513 1.2192 9.95746 2.40378 6.15816 6.18864C2.35885 9.97351 1.18872 14.5674 0.928697 19.7535C0.62533 25.0985 0.62533 41.1192 0.928697 46.4642C1.17428 51.6504 2.35885 56.2442 6.15816 60.0291C9.95746 63.814 14.5368 64.9985 19.723 65.2586C25.068 65.5619 41.0886 65.5619 46.4337 65.2586C51.6198 65.013 56.2136 63.8284 59.9985 60.0291C63.7833 56.2442 64.9679 51.6504 65.2279 46.4642C65.5313 41.1192 65.5313 25.113 65.2279 19.7679ZM58.3227 52.1993C57.1959 55.0308 55.0146 57.2121 52.1687 58.3533C47.9072 60.0435 37.7949 59.6535 33.0855 59.6535C28.3761 59.6535 18.2495 60.0291 14.0023 58.3533C11.1709 57.2266 8.98958 55.0452 7.84834 52.1993C6.15816 47.9377 6.5482 37.8255 6.5482 33.1161C6.5482 28.4067 6.1726 18.28 7.84834 14.0329C8.97513 11.2014 11.1565 9.02007 14.0023 7.87883C18.2639 6.18865 28.3761 6.57869 33.0855 6.57869C37.7949 6.57869 47.9216 6.20309 52.1687 7.87883C55.0002 9.00563 57.1815 11.187 58.3227 14.0329C60.0129 18.2944 59.6229 28.4067 59.6229 33.1161C59.6229 37.8255 60.0129 47.9522 58.3227 52.1993Z" fill="white"/>
</svg>
