<svg width="67" height="111" viewBox="0 0 67 111" fill="none" xmlns="http://www.w3.org/2000/svg">
<path id="mobile" d="M40.1991 99.2886C40.1991 97.4046 39.5281 95.7917 38.1862 94.4498C36.8443 93.1079 35.2314 92.437 33.3475 92.437C31.4636 92.437 29.8506 93.1079 28.5088 94.4498C27.1669 95.7917 26.4959 97.4046 26.4959 99.2886C26.4959 101.172 27.1669 102.785 28.5088 104.127C29.8506 105.469 31.4636 106.14 33.3475 106.14C35.2314 106.14 36.8443 105.469 38.1862 104.127C39.5281 102.785 40.1991 101.172 40.1991 99.2886ZM58.0131 85.5854V25.2916C58.0131 24.5486 57.7421 23.9061 57.2001 23.364C56.658 22.822 56.0155 22.551 55.2725 22.551H11.4225C10.6795 22.551 10.0369 22.822 9.49489 23.364C8.95286 23.9061 8.68184 24.5486 8.68184 25.2916V85.5854C8.68184 86.3284 8.95286 86.971 9.49489 87.513C10.0369 88.055 10.6795 88.326 11.4225 88.326H55.2725C56.0155 88.326 56.658 88.055 57.2001 87.513C57.7421 86.971 58.0131 86.3284 58.0131 85.5854ZM41.5694 12.9588C41.5694 12.0453 41.1126 11.5885 40.1991 11.5885H26.4959C25.5824 11.5885 25.1256 12.0453 25.1256 12.9588C25.1256 13.8723 25.5824 14.3291 26.4959 14.3291H40.1991C41.1126 14.3291 41.5694 13.8723 41.5694 12.9588ZM66.235 11.5885V99.2885C66.235 102.259 65.1499 104.828 62.9797 106.996C60.8096 109.164 58.2405 110.249 55.2725 110.251H11.4225C8.45244 110.251 5.88336 109.166 3.71522 106.996C1.54708 104.826 0.461991 102.257 0.459961 99.2885V11.5885C0.459961 8.61846 1.54505 6.04937 3.71522 3.88123C5.88539 1.71309 8.45447 0.628007 11.4225 0.625977H55.2725C58.2425 0.625977 60.8116 1.71106 62.9797 3.88123C65.1479 6.0514 66.233 8.62049 66.235 11.5885Z" fill="#DE3249"/>
</svg>
