<svg width="107" height="111" viewBox="0 0 107 111" fill="none" xmlns="http://www.w3.org/2000/svg">
<path id="moneybag" d="M78.4145 109.974C75.0965 110.047 66.836 110.084 53.633 110.084C40.4301 110.084 32.1696 110.047 28.8515 109.974C19.4854 109.752 12.4231 109.125 7.66475 108.094C2.9064 107.063 0.528242 105.329 0.530275 102.894C0.530275 101.419 1.26773 98.4512 2.74263 93.9899C4.21754 89.5285 5.83994 84.8454 7.60983 79.9406C9.37971 75.0358 11.0021 69.3935 12.477 63.0138C13.9519 56.634 14.6894 51.0467 14.6894 46.2517C14.6894 32.0906 27.6696 25.01 53.63 25.01C79.5904 25.01 92.5705 32.0906 92.5705 46.2517C92.5705 51.0446 93.308 56.631 94.7829 63.0107C96.2578 69.3905 97.8802 75.0327 99.6501 79.9376C101.42 84.8424 103.042 89.5255 104.517 93.9868C105.992 98.4482 106.73 101.416 106.73 102.891C106.73 105.324 104.351 107.058 99.5952 108.091C94.8388 109.124 87.7786 109.752 78.4145 109.974ZM53.633 49.7915C58.6477 49.7915 62.8334 50.3814 66.1901 51.5614C69.5467 52.7413 71.2617 54.4746 71.3349 56.7612V56.871C71.3349 57.8292 71.6849 58.6592 72.3847 59.3611C73.0845 60.0629 73.9145 60.4128 74.8747 60.4108C75.8349 60.4088 76.665 60.0589 77.3648 59.3611C78.0646 58.6633 78.4145 57.8333 78.4145 56.871C78.4145 48.2413 71.3339 43.5582 57.1728 42.8218V39.1722C57.1728 38.214 56.8229 37.384 56.1231 36.6821C55.4232 35.9803 54.5932 35.6293 53.633 35.6293C52.6728 35.6293 51.8428 35.9792 51.143 36.6791C50.4431 37.3789 50.0932 38.2089 50.0932 39.1691V42.8187C35.9321 43.5572 28.8515 48.2403 28.8515 56.868C28.8515 58.4914 29.0916 59.8931 29.5717 61.073C30.0518 62.2529 30.8259 63.2304 31.8939 64.0055C32.9619 64.7806 34.1236 65.4072 35.3788 65.8853C36.634 66.3633 38.293 66.7132 40.3558 66.935C42.4186 67.1567 44.4103 67.3042 46.3307 67.3775C48.2511 67.4507 50.6852 67.4873 53.633 67.4873C58.723 67.4873 62.9453 68.0956 66.2999 69.3121C69.6546 70.5287 71.3319 72.2823 71.3319 74.573C71.3319 76.8637 69.6535 78.6152 66.2969 79.8277C62.9402 81.0402 58.7189 81.6485 53.633 81.6525C48.6183 81.6525 44.4327 81.0626 41.076 79.8826C37.7193 78.7027 36.0043 76.9694 35.9311 74.6828V74.573C35.9311 73.6148 35.5812 72.7848 34.8814 72.0829C34.1815 71.3811 33.3515 71.0301 32.3913 71.0301C31.4311 71.0301 30.6011 71.38 29.9013 72.0799C29.2014 72.7797 28.8515 73.6107 28.8515 74.573C28.8515 83.2027 35.9321 87.8858 50.0932 88.6222V92.2719C50.0932 93.23 50.4431 94.0601 51.143 94.7619C51.8428 95.4638 52.6728 95.8137 53.633 95.8116C54.5932 95.8096 55.4232 95.4597 56.1231 94.7619C56.8229 94.0641 57.1728 93.2341 57.1728 92.2719V88.6222C71.3339 87.8837 78.4145 83.2007 78.4145 74.573C78.4145 65.1336 70.154 60.4139 53.633 60.4139C52.5996 60.4139 51.3088 60.4322 49.7606 60.4688C48.2125 60.5054 46.9583 60.542 45.9981 60.5786C45.0379 60.6153 43.9688 60.6153 42.7909 60.5786C41.613 60.542 40.6538 60.4495 39.9133 60.301C39.1728 60.1525 38.472 59.95 37.8108 59.6937C37.1497 59.4374 36.6706 59.0681 36.3736 58.586C36.0765 58.1039 35.9291 57.5322 35.9311 56.871C35.9311 54.5844 37.6277 52.8328 41.021 51.6163C44.4143 50.3998 48.6183 49.7915 53.633 49.7915ZM53.633 17.9305C49.2083 17.9305 45.1518 18.1522 41.4635 18.5957C39.9154 15.4974 38.6063 12.4916 37.5362 9.57841C36.4661 6.66521 35.9311 4.72851 35.9311 3.76829C35.9311 2.58837 36.8903 1.40844 38.8087 0.228516C40.5786 1.26197 42.8275 2.11029 45.5556 2.77349C48.2837 3.43669 50.9761 3.76829 53.633 3.76829C56.2899 3.76829 58.9823 3.43669 61.7104 2.77349C64.4385 2.11029 66.6875 1.26197 68.4573 0.228516C70.3757 1.40844 71.3349 2.58837 71.3349 3.76829C71.3349 4.72647 70.7999 6.66216 69.7298 9.57536C68.6598 12.4886 67.3507 15.4943 65.8025 18.5926C62.1142 18.1491 58.0577 17.9274 53.633 17.9274V17.9305Z" fill="#191C2A"/>
</svg>
