<svg width="107" height="111" viewBox="0 0 107 111" fill="none" xmlns="http://www.w3.org/2000/svg">
<path id="moneybag" d="M78.6694 109.974C75.3513 110.047 67.0909 110.084 53.8879 110.084C40.6849 110.084 32.4244 110.047 29.1064 109.974C19.7402 109.752 12.678 109.125 7.91964 108.094C3.16128 107.063 0.783124 105.329 0.785158 102.894C0.785158 101.419 1.52261 98.4512 2.99752 93.9899C4.47242 89.5285 6.09482 84.8454 7.86471 79.9406C9.6346 75.0358 11.257 69.3935 12.7319 63.0138C14.2068 56.634 14.9443 51.0467 14.9443 46.2517C14.9443 32.0906 27.9245 25.01 53.8848 25.01C79.8452 25.01 92.8254 32.0906 92.8254 46.2517C92.8254 51.0446 93.5629 56.631 95.0378 63.0107C96.5127 69.3905 98.1351 75.0327 99.905 79.9376C101.675 84.8424 103.297 89.5255 104.772 93.9868C106.247 98.4482 106.985 101.416 106.985 102.891C106.985 105.324 104.606 107.058 99.85 108.091C95.0937 109.124 88.0335 109.752 78.6694 109.974ZM53.8879 49.7915C58.9026 49.7915 63.0883 50.3814 66.4449 51.5614C69.8016 52.7413 71.5166 54.4746 71.5898 56.7612V56.871C71.5898 57.8292 71.9397 58.6592 72.6396 59.3611C73.3394 60.0629 74.1694 60.4128 75.1296 60.4108C76.0898 60.4088 76.9198 60.0589 77.6197 59.3611C78.3195 58.6633 78.6694 57.8333 78.6694 56.871C78.6694 48.2413 71.5888 43.5582 57.4277 42.8218V39.1722C57.4277 38.214 57.0778 37.384 56.3779 36.6821C55.6781 35.9803 54.8481 35.6293 53.8879 35.6293C52.9277 35.6293 52.0977 35.9792 51.3979 36.6791C50.698 37.3789 50.3481 38.2089 50.3481 39.1691V42.8187C36.187 43.5572 29.1064 48.2403 29.1064 56.868C29.1064 58.4914 29.3465 59.8931 29.8266 61.073C30.3067 62.2529 31.0808 63.2304 32.1488 64.0055C33.2168 64.7806 34.3784 65.4072 35.6336 65.8853C36.8888 66.3633 38.5479 66.7132 40.6107 66.935C42.6735 67.1567 44.6652 67.3042 46.5856 67.3775C48.506 67.4507 50.9401 67.4873 53.8879 67.4873C58.9779 67.4873 63.2002 68.0956 66.5548 69.3121C69.9095 70.5287 71.5868 72.2823 71.5868 74.573C71.5868 76.8637 69.9084 78.6152 66.5518 79.8277C63.1951 81.0402 58.9738 81.6485 53.8879 81.6525C48.8732 81.6525 44.6875 81.0626 41.3308 79.8826C37.9742 78.7027 36.2592 76.9694 36.186 74.6828V74.573C36.186 73.6148 35.8361 72.7848 35.1362 72.0829C34.4364 71.3811 33.6064 71.0301 32.6462 71.0301C31.686 71.0301 30.856 71.38 30.1561 72.0799C29.4563 72.7797 29.1064 73.6107 29.1064 74.573C29.1064 83.2027 36.187 87.8858 50.3481 88.6222V92.2719C50.3481 93.23 50.698 94.0601 51.3979 94.7619C52.0977 95.4638 52.9277 95.8137 53.8879 95.8116C54.8481 95.8096 55.6781 95.4597 56.3779 94.7619C57.0778 94.0641 57.4277 93.2341 57.4277 92.2719V88.6222C71.5888 87.8837 78.6694 83.2007 78.6694 74.573C78.6694 65.1336 70.4089 60.4139 53.8879 60.4139C52.8545 60.4139 51.5636 60.4322 50.0155 60.4688C48.4674 60.5054 47.2132 60.542 46.253 60.5786C45.2928 60.6153 44.2237 60.6153 43.0458 60.5786C41.8679 60.542 40.9087 60.4495 40.1682 60.301C39.4277 60.1525 38.7269 59.95 38.0657 59.6937C37.4045 59.4374 36.9254 59.0681 36.6284 58.586C36.3314 58.1039 36.1839 57.5322 36.186 56.871C36.186 54.5844 37.8826 52.8328 41.2759 51.6163C44.6692 50.3998 48.8732 49.7915 53.8879 49.7915ZM53.8879 17.9305C49.4632 17.9305 45.4067 18.1522 41.7184 18.5957C40.1703 15.4974 38.8611 12.4916 37.7911 9.57841C36.721 6.66521 36.186 4.72851 36.186 3.76829C36.186 2.58837 37.1452 1.40844 39.0636 0.228516C40.8334 1.26197 43.0824 2.11029 45.8105 2.77349C48.5386 3.43669 51.231 3.76829 53.8879 3.76829C56.5448 3.76829 59.2372 3.43669 61.9653 2.77349C64.6934 2.11029 66.9423 1.26197 68.7122 0.228516C70.6306 1.40844 71.5898 2.58837 71.5898 3.76829C71.5898 4.72647 71.0548 6.66216 69.9847 9.57536C68.9146 12.4886 67.6055 15.4943 66.0574 18.5926C62.3691 18.1491 58.3126 17.9274 53.8879 17.9274V17.9305Z" fill="#DE3249"/>
</svg>
