<svg width="743" height="616" viewBox="0 0 743 616" fill="none" xmlns="http://www.w3.org/2000/svg">
<path d="M529.796 428.888L525.126 426.286C495.343 408.123 477.165 375.763 477.151 340.878C477.151 285.602 432.34 240.791 377.063 240.791C321.787 240.791 276.976 285.602 276.976 340.878C277.018 375.709 258.949 408.057 229.268 426.286L224.664 428.888C176.758 456.526 160.327 517.767 187.966 565.674C215.604 613.58 276.845 630.011 324.751 602.372C326.353 601.371 328.021 600.371 329.756 599.503C359.444 583.463 395.217 583.463 424.905 599.503L429.642 602.172C444.208 610.145 460.546 614.321 477.15 614.316C521.981 614.356 561.37 584.579 573.557 541.437C585.743 498.294 567.755 452.31 529.529 428.888L529.796 428.888Z" fill="#191C2A"/>
<ellipse cx="642.695" cy="314.989" rx="100.02" ry="100.02" fill="#191C2A"/>
<ellipse cx="114.754" cy="345.754" rx="100.02" ry="100.02" transform="rotate(-9.22024 114.754 345.754)" fill="#191C2A"/>
<ellipse cx="499.303" cy="114.882" rx="100.02" ry="100.02" fill="#191C2A"/>
<ellipse cx="250.754" cy="114.755" rx="100.02" ry="100.02" transform="rotate(-9.22024 250.754 114.755)" fill="#191C2A"/>
</svg>