<svg id="SvgjsSvg1120" width="288" height="288" xmlns="http://www.w3.org/2000/svg" version="1.1" xmlns:xlink="http://www.w3.org/1999/xlink" xmlns:svgjs="http://svgjs.com/svgjs"><defs id="SvgjsDefs1121"></defs><g id="SvgjsG1122"><svg xmlns="http://www.w3.org/2000/svg" version="1.0" viewBox="0 0 100 100" width="288" height="288"><path d="M43.235 50.769 63.333 40 48.249 54.495l-.71 6.631 4.108-3.975 13.418 10.915 6.758-36.155-37.592 15.641z" fill="#ffffff" class="color000 svgShape"></path><path d="M83.333 10H16.667C13.001 10 10 13.001 10 16.667v66.666C10 86.999 13.001 90 16.667 90h66.666C86.999 90 90 86.999 90 83.333V16.667C90 13.001 86.999 10 83.333 10zM70.515 75.208s-1.328 3.522-4.98 1.833L52.031 66.058l-8.659 8.379s-.677.544-1.419.202c0 0-.638-.065-1.438-2.734-.795-2.679-4.844-16.758-4.844-16.758l-13.405-4.788s-2.058-.775-2.253-2.465c-.201-1.689 2.324-2.607 2.324-2.607l53.281-22.174S80 21.072 80 24.451l-9.485 50.757z" fill="#ffffff" class="color000 svgShape"></path></svg></g></svg>