<svg width="66" height="65" viewBox="0 0 66 65" fill="none" xmlns="http://www.w3.org/2000/svg">
<path id="Icon awesome-youtube-square" d="M27.8985 24.8432L41.6511 32.6586L27.8985 40.4739V24.8432ZM65.6315 7.20461V58.0547C65.6315 61.8829 62.5256 64.9888 58.6974 64.9888H7.84742C4.01923 64.9888 0.91333 61.8829 0.91333 58.0547V7.20461C0.91333 3.37641 4.01923 0.270508 7.84742 0.270508H58.6974C62.5256 0.270508 65.6315 3.37641 65.6315 7.20461ZM59.5642 32.673C59.5642 32.673 59.5642 24.0632 58.4663 19.9316C57.8596 17.6491 56.0827 15.8578 53.8147 15.2511C49.7264 14.1387 33.2724 14.1387 33.2724 14.1387C33.2724 14.1387 16.8184 14.1387 12.7302 15.2511C10.4621 15.8578 8.68529 17.6491 8.07856 19.9316C6.98066 24.0487 6.98066 32.673 6.98066 32.673C6.98066 32.673 6.98066 41.2829 8.07856 45.4144C8.68529 47.6969 10.4621 49.416 12.7302 50.0227C16.8184 51.1206 33.2724 51.1206 33.2724 51.1206C33.2724 51.1206 49.7264 51.1206 53.8147 50.0083C56.0827 49.4015 57.8596 47.6825 58.4663 45.4C59.5642 41.2829 59.5642 32.673 59.5642 32.673Z" fill="white"/>
</svg>
